<svg xmlns="http://www.w3.org/2000/svg" version="1.1" xmlns:xlink="http://www.w3.org/1999/xlink" xmlns:svgjs="http://svgjs.dev/svgjs" viewBox="0 0 800 800"><defs><filter id="llleaves-blur-2" x="-100%" y="-100%" width="400%" height="400%"><feGaussianBlur in="SourceGraphic" stdDeviation="2"></feGaussianBlur></filter><filter id="llleaves-blur-3" x="-100%" y="-100%" width="400%" height="400%"><feGaussianBlur in="SourceGraphic" stdDeviation="4"></feGaussianBlur></filter><filter id="llleaves-blur-4" x="-100%" y="-100%" width="400%" height="400%"><feGaussianBlur in="SourceGraphic" stdDeviation="12"></feGaussianBlur></filter></defs><g fill="hsl(305, 77%, 40%)"><path d="M525 213H575C603 213 625 235 625 263H575C547 263 525 241 525 213Z " transform="matrix(-0.20140652629822076,0.22368460867507894,-0.22368460867507894,-0.20140652629822076,744.0456894861456,157.31610327080614)" filter="url(#llleaves-blur-2)" opacity="0.46"></path><path d="M92 110H142C170 110 192 132 192 160H142C114 160 92 138 92 110Z " transform="matrix(-0.37496469460983406,4.591993130471981e-17,-4.591993130471981e-17,-0.37496469460983406,195.24498663459642,185.62023377232762)" filter="url(#llleaves-blur-2)" opacity="0.57"></path><path d="M167 458H217C245 458 267 480 267 508H217C189 508 167 486 167 458Z " transform="matrix(-0.3396825969474704,0.09101767753498133,-0.09101767753498133,-0.3396825969474704,334.6726617869971,627.3158583005372)" filter="url(#llleaves-blur-2)" opacity="0.54"></path><path d="M6 643H56C84 643 106 665 106 693H56C28 693 6 671 6 643Z " transform="matrix(-0.18634784277186725,-0.4390080062602561,0.4390080062602561,-0.18634784277186725,-226.8218689866265,817.0648073221817)" opacity="0.73"></path><path d="M607 295H657C685 295 707 317 707 345H657C629 345 607 323 607 295Z " transform="matrix(-0.2715834085414978,0.17636832769331023,-0.17636832769331023,-0.2715834085414978,891.8681642736233,291.0326994387745)" filter="url(#llleaves-blur-2)" opacity="0.50"></path><path d="M428 180H478C506 180 528 202 528 230H478C450 230 428 208 428 180Z " transform="matrix(-0.1365850809847907,0.24640600875417734,-0.24640600875417734,-0.1365850809847907,593.8009005053364,115.21786941738532)" filter="url(#llleaves-blur-3)" opacity="0.43"></path><path d="M113 550H163C191 550 213 572 213 600H163C135 600 113 578 113 550Z " transform="matrix(-0.38405801786476595,-0.10290803573356155,0.10290803573356155,-0.38405801786476595,166.42933636515895,812.607370096811)" filter="url(#llleaves-blur-2)" opacity="0.61"></path><path d="M90 244H140C168 244 190 266 190 294H140C112 294 90 272 90 244Z " transform="matrix(-0.3776186546824459,-0.16028960904364933,0.16028960904364933,-0.3776186546824459,149.74870682280076,393.0199633756888)" opacity="0.63"></path><path d="M264 196H314C342 196 364 218 364 246H314C286 246 264 224 264 196Z " transform="matrix(-0.22151432962531034,0.2139139015780762,-0.2139139015780762,-0.22151432962531034,430.83047175110227,202.78570175167766)" filter="url(#llleaves-blur-2)" opacity="0.47"></path><path d="M702 718H752C780 718 802 740 802 768H752C724 768 702 746 702 718Z " transform="matrix(-0.32355943701880624,0.11776600409077552,-0.11776600409077552,-0.32355943701880624,1082.8168376775884,894.8446266287098)" filter="url(#llleaves-blur-2)" opacity="0.53"></path><path d="M619 420H669C697 420 719 442 719 470H669C641 470 619 448 619 420Z " transform="matrix(-0.2812277070002294,0.1689786541158593,-0.1689786541158593,-0.2812277070002294,932.336837064711,457.09961001159223)" filter="url(#llleaves-blur-2)" opacity="0.50"></path><path d="M705 479H755C783 479 805 501 805 529H755C727 529 705 507 705 479Z " transform="matrix(-0.32355943701880624,0.11776600409077552,-0.11776600409077552,-0.32355943701880624,1058.6414410109496,578.1606231689428)" filter="url(#llleaves-blur-2)" opacity="0.53"></path><path d="M623 191H673C701 191 723 213 723 241H673C645 241 623 219 623 191Z " transform="matrix(-0.2812277070002294,0.1689786541158593,-0.1689786541158593,-0.2812277070002294,898.76563610018,163.02255049207625)" filter="url(#llleaves-blur-2)" opacity="0.50"></path><path d="M116 639H166C194 639 216 661 216 689H166C138 689 116 667 116 639Z " transform="matrix(-0.38405801786476595,-0.10290803573356155,0.10290803573356155,-0.38405801786476595,161.42269523846628,936.0972577939758)" filter="url(#llleaves-blur-2)" opacity="0.61"></path><path d="M148 20H198C226 20 248 42 248 70H198C170 70 148 48 148 20Z " transform="matrix(-0.06280097626835353,0.2518809582245493,-0.2518809582245493,-0.06280097626835353,221.7692364212387,-2.046385796384854)" filter="url(#llleaves-blur-3)" opacity="0.40"></path><path d="M218 640H268C296 640 318 662 318 690H268C240 690 218 668 218 640Z " transform="matrix(-0.2680456214006146,0.1807990545370352,-0.1807990545370352,-0.2680456214006146,460.0675978024931,794.7961916154833)" filter="url(#llleaves-blur-2)" opacity="0.50"></path><path d="M82 728H132C160 728 182 750 182 778H132C104 778 82 756 82 728Z " transform="matrix(-0.35888525475360794,-0.22425639654770077,0.22425639654770077,-0.35888525475360794,10.507787027057546,1052.8424411737633)" opacity="0.65"></path><path d="M704 129H754C782 129 804 151 804 179H754C726 179 704 157 704 129Z " transform="matrix(-0.37009075482021464,0.01939563459331192,-0.01939563459331192,-0.37009075482021464,1036.0353568618118,196.3696677589559)" filter="url(#llleaves-blur-2)" opacity="0.57"></path><path d="M18 16H68C96 16 118 38 118 66H68C40 66 18 44 18 16Z " transform="matrix(-0.32683438782974794,0.11253810470240604,-0.11253810470240604,-0.32683438782974794,94.8388006652215,46.74761878125606)" filter="url(#llleaves-blur-2)" opacity="0.53"></path><path d="M543 15H593C621 15 643 37 643 65H593C565 65 543 43 543 15Z " transform="matrix(-0.3631372739264199,0.03816726547249894,-0.03816726547249894,-0.3631372739264199,809.8670940572669,31.892302531864928)" filter="url(#llleaves-blur-2)" opacity="0.56"></path><path d="M268 448H318C346 448 368 470 368 498H318C290 498 268 476 268 448Z " transform="matrix(-0.20169702157670164,0.22400723636685857,-0.22400723636685857,-0.20169702157670164,488.0950756629152,497.1683900411188)" filter="url(#llleaves-blur-2)" opacity="0.46"></path><path d="M327 518H377C405 518 427 540 427 568H377C349 568 327 546 327 518Z " transform="matrix(-0.15209934588685994,0.24340983506729993,-0.24340983506729993,-0.15209934588685994,566.5129938408902,533.8244369961928)" filter="url(#llleaves-blur-3)" opacity="0.44"></path><path d="M511 565H561C589 565 611 587 611 615H561C533 615 511 593 511 565Z " transform="matrix(-0.1867349721639159,0.23059848615087183,-0.23059848615087183,-0.1867349721639159,801.8114262129712,570.8078828460713)" filter="url(#llleaves-blur-3)" opacity="0.45"></path><path d="M708 596H758C786 596 808 618 808 646H758C730 646 708 624 708 596Z " transform="matrix(-0.32355943701880624,0.11776600409077552,-0.11776600409077552,-0.32355943701880624,1076.3907418006268,732.6637792878709)" filter="url(#llleaves-blur-2)" opacity="0.53"></path><path d="M223 548H273C301 548 323 570 323 598H273C245 598 223 576 223 548Z " transform="matrix(-0.2680456214006146,0.1807990545370352,-0.1807990545370352,-0.2680456214006146,449.7743128920889,677.2319991739415)" filter="url(#llleaves-blur-2)" opacity="0.50"></path><path d="M529 466H579C607 466 629 488 629 516H579C551 516 529 494 529 466Z " transform="matrix(-0.20140652629822076,0.22368460867507894,-0.22368460867507894,-0.20140652629822076,805.4435215861336,460.3772159895557)" filter="url(#llleaves-blur-2)" opacity="0.46"></path><path d="M479 100H529C557 100 579 122 579 150H529C501 150 479 128 479 100Z " transform="matrix(-0.20216531893533757,0.2245273332740211,-0.2245273332740211,-0.20216531893533757,664.0113703760462,31.495705564960033)" filter="url(#llleaves-blur-2)" opacity="0.46"></path><path d="M277 727H327C355 727 377 749 377 777H327C299 777 277 755 277 727Z " transform="matrix(-0.20169702157670164,0.22400723636685857,-0.22400723636685857,-0.20169702157670164,561.4083678034591,830.4257939337169)" filter="url(#llleaves-blur-2)" opacity="0.46"></path><path d="M373 728H423C451 728 473 750 473 778H423C395 778 373 756 373 728Z " transform="matrix(-0.13172519251742942,0.24773905572037033,-0.24773905572037033,-0.13172519251742942,665.2672653923115,747.3954493959077)" filter="url(#llleaves-blur-3)" opacity="0.43"></path><path d="M701 361H751C779 361 801 383 801 411H751C723 411 701 389 701 361Z " transform="matrix(-0.32355943701880624,0.11776600409077552,-0.11776600409077552,-0.32355943701880624,1039.4508147801628,422.4516736170868)" filter="url(#llleaves-blur-2)" opacity="0.53"></path><path d="M220 97H270C298 97 320 119 320 147H270C242 147 220 125 220 97Z " transform="matrix(-0.1413582633218149,0.2448396941430836,-0.2448396941430836,-0.1413582633218149,338.03717378234626,73.13899070662885)" filter="url(#llleaves-blur-3)" opacity="0.43"></path><path d="M705 249H755C783 249 805 271 805 299H755C727 299 705 277 705 249Z " transform="matrix(-0.32355943701880624,0.11776600409077552,-0.11776600409077552,-0.32355943701880624,1031.5552600700712,273.74195265461736)" filter="url(#llleaves-blur-2)" opacity="0.53"></path><path d="M593 98H643C671 98 693 120 693 148H643C615 148 593 126 593 98Z " transform="matrix(-0.35153458973785084,0.06833140222584454,-0.06833140222584454,-0.35153458973785084,877.441503675217,122.30166290653762)" filter="url(#llleaves-blur-2)" opacity="0.55"></path><path d="M-7 730H43C71 730 93 752 93 780H43C15 780 -7 758 -7 730Z " transform="matrix(-0.11864112292171845,-0.47584355374771076,0.47584355374771076,-0.11864112292171845,-311.1603147938877,865.0353206170489)" opacity="0.75"></path><path d="M685 23H735C763 23 785 45 785 73H735C707 73 685 51 685 23Z " transform="matrix(-0.29974446533644766,-0.3328999544534437,0.3328999544534437,-0.29974446533644766,939.3329842085237,307.0692008594306)" opacity="0.69"></path><path d="M3 192H53C81 192 103 214 103 242H53C25 242 3 220 3 192Z " transform="matrix(-0.18634784277186725,-0.4390080062602561,0.4390080062602561,-0.18634784277186725,-32.38830169156661,280.7049062132887)" opacity="0.73"></path><path d="M2 379H52C80 379 102 401 102 429H52C24 429 2 407 2 379Z " transform="matrix(-0.18634784277186725,-0.4390080062602561,0.4390080062602561,-0.18634784277186725,-115.66914670500637,502.1129448053677)" opacity="0.73"></path><path d="M614 535H664C692 535 714 557 714 585H664C636 585 614 563 614 535Z " transform="matrix(-0.2715834085414978,0.17636832769331023,-0.17636832769331023,-0.2715834085414978,943.0976467798082,594.9781391948808)" filter="url(#llleaves-blur-2)" opacity="0.50"></path><path d="M408 571H458C486 571 508 593 508 621H458C430 621 408 599 408 571Z " transform="matrix(-0.1317171974283644,0.24772401914477293,-0.24772401914477293,-0.1317171974283644,665.9699918324756,561.0458488989992)" filter="url(#llleaves-blur-3)" opacity="0.43"></path><path d="M107 353H157C185 353 207 375 207 403H157C129 403 107 381 107 353Z " transform="matrix(-0.38405801786476595,-0.10290803573356155,0.10290803573356155,-0.38405801786476595,178.39787129748197,539.3304923630507)" filter="url(#llleaves-blur-2)" opacity="0.61"></path><path d="M0 289H50C78 289 100 311 100 339H50C22 339 0 317 0 289Z " transform="matrix(-0.11864112292171845,-0.47584355374771076,0.47584355374771076,-0.11864112292171845,-93.48281973069527,375.04549028480517)" opacity="0.75"></path><path d="M354 392H404C432 392 454 414 454 442H404C376 442 354 420 354 392Z " transform="matrix(-0.13664268221811388,0.2465099241298549,-0.2465099241298549,-0.13664268221811388,561.9982819782675,374.3899891364921)" filter="url(#llleaves-blur-3)" opacity="0.43"></path><path d="M342 114H392C420 114 442 136 442 164H392C364 164 342 142 342 114Z " transform="matrix(-0.0964914606999153,0.251368849105681,-0.251368849105681,-0.0964914606999153,464.76492262005644,53.87572418786125)" filter="url(#llleaves-blur-3)" opacity="0.41"></path></g><g fill="none" stroke-width="3" stroke="hsl(305, 77%, 40%)"><path d="M424 481H474C502 481 524 503 524 531H474C446 531 424 509 424 481Z " transform="matrix(-0.1365850809847907,0.24640600875417734,-0.24640600875417734,-0.1365850809847907,663.4227688164045,458.31560282882407)" filter="url(#llleaves-blur-3)" opacity="0.43"></path><path d="M482 736H532C560 736 582 758 582 786H532C504 786 482 764 482 736Z " transform="matrix(-0.1617163499944706,0.2397543484721477,-0.2397543484721477,-0.1617163499944706,800.4861573843627,756.5168289586096)" filter="url(#llleaves-blur-3)" opacity="0.44"></path><path d="M441 293H491C519 293 541 315 541 343H491C463 343 441 321 441 293Z " transform="matrix(-0.14180099295922832,0.24560652436910022,-0.24560652436910022,-0.14180099295922832,638.7271622923549,242.49991229580638)" filter="url(#llleaves-blur-3)" opacity="0.43"></path><path d="M282 19H332C360 19 382 41 382 69H332C304 69 282 47 282 19Z " transform="matrix(0.04220586209976352,0.2171303373628274,-0.2171303373628274,0.04220586209976352,327.5413886268429,-29.944329936848305)" filter="url(#llleaves-blur-3)" opacity="0.34"></path><path d="M450 391H500C528 391 550 413 550 441H500C472 441 450 419 450 391Z " transform="matrix(-0.15161829294951296,0.24263998944136692,-0.24263998944136692,-0.15161829294951296,676.7473820823651,357.75321514631395)" filter="url(#llleaves-blur-3)" opacity="0.44"></path><path d="M-7 100H43C71 100 93 122 93 150H43C15 150 -7 128 -7 100Z " transform="matrix(-0.30935639812332155,-0.3203479280217633,0.3203479280217633,-0.30935639812332155,16.25883411658241,177.444510670351)" opacity="0.68"></path><path d="M596 733H646C674 733 696 755 696 783H646C618 783 596 761 596 733Z " transform="matrix(-0.258364597254742,0.1877128676365472,-0.1877128676365472,-0.258364597254742,955.189883495066,832.577852225885)" filter="url(#llleaves-blur-2)" opacity="0.49"></path><path d="M-10 471H40C68 471 90 493 90 521H40C12 521 -10 499 -10 471Z " transform="matrix(-0.11864112292171845,-0.47584355374771076,0.47584355374771076,-0.11864112292171845,-191.27275774199578,573.8797391190808)" opacity="0.75"></path><path d="M178 730H228C256 730 278 752 278 780H228C200 780 178 758 178 730Z " transform="matrix(-0.3396825969474704,0.09101767753498133,-0.09101767753498133,-0.3396825969474704,374.1659786429342,990.7083302173644)" filter="url(#llleaves-blur-2)" opacity="0.54"></path><path d="M536 351H586C614 351 636 373 636 401H586C558 401 536 379 536 351Z " transform="matrix(-0.21601206820535349,0.2160120682053535,-0.2160120682053535,-0.21601206820535349,793.8036096135501,330.63746567687576)" filter="url(#llleaves-blur-2)" opacity="0.47"></path><path d="M76 456H126C154 456 176 478 176 506H126C98 506 76 484 76 456Z " transform="matrix(-0.35888525475360794,-0.22425639654770077,0.22425639654770077,-0.35888525475360794,63.35221535951052,681.8801135014958)" opacity="0.65"></path><path d="M407 22H457C485 22 507 44 507 72H457C429 72 407 50 407 22Z " transform="matrix(-0.09149064686578615,0.2513684863550443,-0.2513684863550443,-0.09149064686578615,510.62554447635137,-63.575337861563256)" filter="url(#llleaves-blur-3)" opacity="0.41"></path><path d="M6 558H56C84 558 106 580 106 608H56C28 608 6 586 6 558Z " transform="matrix(-0.18634784277186725,-0.4390080062602561,0.4390080062602561,-0.18634784277186725,-189.50618845450472,716.225240686573)" opacity="0.73"></path><path d="M533 655H583C611 655 633 677 633 705H583C555 705 533 683 533 655Z " transform="matrix(-0.20140652629822076,0.22368460867507894,-0.22368460867507894,-0.20140652629822076,852.5255387309164,686.548311025219)" filter="url(#llleaves-blur-2)" opacity="0.46"></path><path d="M625 638H675C703 638 725 660 725 688H675C647 688 625 666 625 638Z " transform="matrix(-0.2812277070002294,0.1689786541158593,-0.1689786541158593,-0.2812277070002294,976.8615499039695,735.393378212947)" filter="url(#llleaves-blur-2)" opacity="0.50"></path><path d="M319 626H369C397 626 419 648 419 676H369C341 676 319 654 319 626Z " transform="matrix(-0.15209934588685994,0.24340983506729993,-0.24340983506729993,-0.15209934588685994,583.5844612610637,660.1984450325122)" filter="url(#llleaves-blur-3)" opacity="0.44"></path><path d="M161 178H211C239 178 261 200 261 228H211C183 228 161 206 161 178Z " transform="matrix(-0.3588352027322315,0.050430998912589786,-0.050430998912589786,-0.3588352027322315,296.9517205557566,265.20260538408655)" filter="url(#llleaves-blur-2)" opacity="0.56"></path><path d="M192 277H242C270 277 292 299 292 327H242C214 327 192 305 192 277Z " transform="matrix(-0.3166968951013328,0.12795385126150413,-0.12795385126150413,-0.3166968951013328,357.2827116954968,366.67763031531854)" filter="url(#llleaves-blur-2)" opacity="0.52"></path><path d="M216 370H266C294 370 316 392 316 420H266C238 420 216 398 216 370Z " transform="matrix(-0.2932339302030256,0.15591524637211257,-0.15591524637211257,-0.2932339302030256,405.5867477509893,469.35394689521314)" filter="url(#llleaves-blur-2)" opacity="0.51"></path><path d="M300 310H350C378 310 400 332 400 360H350C322 360 300 338 300 310Z " transform="matrix(-0.16688148007881567,0.23833145313673465,-0.23833145313673465,-0.16688148007881567,488.2495548283916,307.4892872285461)" filter="url(#llleaves-blur-3)" opacity="0.45"></path><path d="M431 653H481C509 653 531 675 531 703H481C453 703 431 681 431 653Z " transform="matrix(-0.1365850809847907,0.24640600875417734,-0.24640600875417734,-0.1365850809847907,713.7606978890166,652.0833946969287)" filter="url(#llleaves-blur-3)" opacity="0.43"></path><path d="M355 235H405C433 235 455 257 455 285H405C377 285 355 263 355 235Z " transform="matrix(-0.13664268221811388,0.2465099241298549,-0.2465099241298549,-0.13664268221811388,524.4328665720984,195.69057810411837)" filter="url(#llleaves-blur-3)" opacity="0.43"></path></g></svg>